TITLE ""
FILE "Disc6Track35.mp3" MP3
  TRACK 01 AUDIO
    TITLE "Disc6Track35_01"
    INDEX 01 00:00:00
  TRACK 02 AUDIO
    TITLE "Disc6Track35_02"
    INDEX 01 00:01:08
  TRACK 03 AUDIO
    TITLE "Disc6Track35_03"
    INDEX 01 00:03:03
  TRACK 04 AUDIO
    TITLE "Disc6Track35_04"
    INDEX 01 00:04:22
  TRACK 05 AUDIO
    TITLE "Disc6Track35_05"
    INDEX 01 00:10:09
